<svg xmlns="http://www.w3.org/2000/svg" width="254.75" height="389.625" viewBox="0 0 254.75 389.625"><path fill="none" d="M2.77 88.73l.252-2.22c-.097.742-.18 1.482-.25 2.22z"/><path fill="#FFF" d="M216.816 264.295c-12.256 10.64-25.052 18.837-41.83 15.224-16.3-3.516-26.1-14.638-32.615-29.238 3.69 3.482 6.863 7.542 10.642 10.92 20.638 18.478 46.777 14.868 61.524-8.537 3.142-4.985 5.936-10.32 8.01-15.832 4.046-10.743 7.478-21.72 11.146-32.605 5.205-15.45 10.06-31.027 15.692-46.316 5.052-13.696 3.616-25.752-6.39-36.62-2.24-2.433-4.03-5.292-5.954-8.013-.392-.552-.47-1.334-.787-2.306l3.76-.115c.606-8.586-2.223-15.63-8.38-21.08-4.138-3.66-8.84-6.667-13.21-10.077-2.352-1.833-4.535-3.893-6.796-5.846.21-.285.414-.567.623-.848 2.236.49 4.472.986 7.14 1.58-.227-7.424.187-14.453-.812-21.28-1.183-8.073-6.65-13.107-14.432-15.178-4.795-1.282-9.778-1.83-14.62-2.967-5.49-1.293-10.91-2.88-17.412-4.62 2.082-1.81 3.037-2.64 3.787-3.29-2.642-5.87-4.85-11.39-7.557-16.646-3.737-7.265-8.972-9.73-16.912-8.356-2.53.44-5.078 1.04-7.488 1.928-21.628 7.973-43.27 15.9-64.812 24.104-8.43 3.21-11.49 8.548-9.643 17.476 1.07 5.164 3.684 10.018 5.704 14.965.778 1.916 1.835 3.72 2.767 5.576-.398.22-.795.435-1.193.65-3.932-6.14-7.862-12.282-12.062-18.838-2.516 6.38-4.784 12.136-6.908 17.52 10.212 3.242 19.6 6.222 28.1 8.923 5.092-3.26 9.85-7.14 15.252-9.588 10.742-4.874 21.928-8.746 32.755-13.442 10.205-4.427 20.148-9.444 30.28-14.046 1.98-.9 4.282-1.088 6.436-1.607.242.586.48 1.168.722 1.752-4.24 2.347-8.322 5.062-12.748 6.973-16.428 7.092-33.09 13.645-49.404 20.976-6.133 2.754-11.636 6.97-17.266 10.768-1.214.817-2.62 2.81-2.437 4.03 1.45 9.592 1.338 19.807 9.747 26.926 1.797 1.522 3.062 3.68 4.57 5.546l-1.3 1.075c-3.86-3.983-7.72-7.97-10.654-10.996-3.49 6.338-6.615 12.76-10.452 18.71-2.432 3.77-3.002 7.195-.628 10.818 3.953 6.03 7.837 12.165 12.422 17.69 1.857 2.245 5.473 3.007 9.01 4.813.552-5.225 1.195-9.195 1.355-13.188.957-23.95 12.832-38.21 36.16-44.017 11.166-2.776 21.73-8.067 32.462-12.48 2.586-1.063 4.75-3.156 7.105-4.778-.205-.246-.412-.488-.618-.734-1.954.79-3.908 1.573-5.863 2.365-.203-.478-.4-.953-.6-1.43 3.908-1.734 7.82-3.47 11.728-5.197l1.47 1.695c-2.062 2.598-3.702 5.782-6.282 7.655-3.835 2.783-8.183 5.02-12.583 6.82-10.243 4.18-20.697 7.83-30.964 11.95-4.94 1.982-9.893 4.15-14.404 6.95-5.928 3.673-8.017 9.045-4.957 15.325 3.188 6.546 7.944 12.327 12.093 18.385.917 1.337 2.18 2.437 3.283 3.645-10.802-4.202-15.723-13.41-20.89-23.187-2.186 10.783-4.265 21.4-4.064 31.975.226 12.034 7.63 20.408 16.657 22.326 3.45.732 5.61-.06 7.167-3.26 2.982-6.116 5.754-12.388 9.315-18.156 4.685-7.582 8.776-15.934 18.615-18.51 7.622-1.995 15.145-4.38 22.68-6.698 4.693-1.443 9.322-3.084 13.982-4.64-.152-.445-.302-.893-.45-1.338-2.1.378-4.195.758-6.293 1.14 4.052-3.594 8.344-6.218 14.1-4.98-1.913 6.112-4.284 8.225-11.67 10.27-8.885 2.46-17.83 4.688-26.72 7.12-13.867 3.788-13.678 12.38-8.635 21.27 2.93 5.156 6.817 9.766 10.934 15.543-9.273-6.397-15.2-13.915-17.45-24.954-1.52 1.455-2.8 2.26-3.502 3.42-3.042 5.04-6.417 9.97-8.712 15.355-2.23 5.24-6.605 10.52-3.287 16.768 4.688 8.828 12.692 12.99 22.24 13.228 9.63.24 16.855-5.737 22.07-12.898 1.848-2.532 3.197-3.713 5.765-4.326 20.242-4.812 38.66-13.295 54.37-27.26.52-.463 1.207-.73 3.07-1.82-12.586 18.08-29.68 26.76-48.542 32.833l.43 1.34c9.993-.305 19.985-.61 30.858-.94-9.42 4.657-18.383 7.128-27.97 4.632-7.43-1.937-13.11-.16-19.213 4.792-11.4 9.253-24.26 13.998-38.758 6.203-1.818 3.402-3.343 6.792-5.353 9.86-1.953 2.986-4.405 5.643-6.64 8.44 5.433-11.298 10.06-22.034.127-33.1-1.468-1.632-3.35-3.358-5.355-3.95-7.94-2.35-13.502-6.907-16.8-14.757-1.846-4.402-4.263-8.386-9.018-11.24-4.828-2.89-8.673-7.815-12.194-12.437-3.662-4.808-6.425-10.31-9.972-16.152-3.893 3.973-7.336 7.782-11.098 11.24-3.58 3.287-7.487 6.21-11.252 9.293-.24-.35-.482-.7-.724-1.047 4.832-5.032 9.66-10.065 14.492-15.098l-1.13-1.306c-11.754 2.242-23.173 8.235-36.775 3.82l17.67-2.757c-18.225-3.884-22.214-12.838-35.023-29.3 1.39.942 2.153 1.408 2.855 1.948 7.166 5.515 13.815 11.943 21.595 16.355 11.916 6.77 24.896 7.503 36.922.162 11.292-6.896 15.143-18.045 14.695-31.044-.274-7.984-4.207-13.22-11.563-15.055-15.188-3.785-30.418-7.595-45.834-10.185C13.487 64.53 5.203 71.627 3.14 85.61c-.046.3-.077.6-.117.9l-.252 2.22c-.956 10.24.84 20.186 4.86 29.59 12.092 28.296 27.256 54.762 48.347 77.372 16.654 17.853 36.68 29.66 61.057 33.312 1.638.247 3.19 1.05 4.78 1.597l-.292 1.663c-7.53-.356-15.06-.717-23.202-1.105 1.046 28.647-2.598 56.25-10.95 83.22-8.154 26.343-22.106 49.928-33.892 74.463l.356.265s140.61.52 145.42.52c8.083-44.565 13.492-80.65 17.562-125.33zM39.122 76.87c1.085-1.256 3.13-2.825 4.407-2.58 9.162 1.783 18.246 4.002 26.267 5.83-3.186 8.844-6.494 17.36-9.266 26.054-1.114 3.496-2.642 4.926-6.222 4.164-8.177-1.75-16.375-3.408-24.606-5.112-.037-11.044 2.608-20.447 9.42-28.357zm86.015 208.564c-.777-.135-1.557-.27-2.335-.407l7.048-42.31c.873.107 1.745.212 2.618.317l-7.33 42.4z"/><path fill="#332B2B" d="M-121.523 429.013c.13.04.386-.356 1.01-.986-1.084.17-1.673.262-2.263.356.413.22.81.506 1.253.63zM60.53 106.174c2.772-8.694 6.08-17.21 9.267-26.055-8.02-1.828-17.104-4.047-26.268-5.83-1.278-.245-3.323 1.324-4.408 2.58-6.812 7.91-9.457 17.31-9.42 28.355 8.23 1.704 16.43 3.363 24.606 5.112 3.58.763 5.108-.667 6.223-4.163zM39.034 81.21l1.512.567c1.28 7.585-.43 11.504-7.46 15.022l5.948-15.59zm2.745-4.058c8.938 1.7 16.92 3.223 24.24 4.623-2.817 7.972-5.36 15.383-8.1 22.715-.425 1.15-1.768 2.84-2.625 2.804-7.802-.332-15.345-1.827-22.812-6.083 8.247-6.075 12.738-12.96 9.298-24.058zM122.802 285.026l2.335.407c2.444-14.132 4.89-28.267 7.33-42.4-.872-.104-1.744-.21-2.617-.316-2.35 14.103-4.7 28.208-7.048 42.31z"/><path fill="#FFF" d="M57.92 104.49c2.74-7.332 5.28-14.743 8.1-22.715-7.322-1.4-15.304-2.922-24.24-4.623 3.438 11.098-1.053 17.982-9.298 24.06 7.468 4.255 15.01 5.75 22.812 6.082.857.036 2.2-1.652 2.626-2.804z"/><path fill="#FFF" d="M40.545 81.777c-.503-.19-1.007-.38-1.512-.566-1.87 4.903-3.74 9.805-5.95 15.59 7.032-3.52 8.743-7.438 7.462-15.023z"/></svg>