<svg xmlns="http://www.w3.org/2000/svg" width="756.25" height="348.75" viewBox="0 0 756.25 348.75"><path fill="#FFF" d="M752.96 159.087l-.026 1.392c-.038.92.002 2.3-.126 4.114-.155 3.63-.672 9.015-2.045 15.918-1.442 6.88-3.892 15.267-8.113 24.583-2.125 4.647-4.675 9.526-7.728 14.537-3.026 5.026-6.55 10.188-10.583 15.41-8.093 10.42-18.123 21.152-30.086 31.685-11.94 10.56-25.754 20.962-41.2 31.013-7.74 4.996-15.868 9.94-24.39 14.754-8.54 4.782-17.44 9.488-26.697 14.074-9.255 4.59-18.95 8.87-28.973 12.98-5.006 2.07-10.09 4.113-15.24 6.146l-.966.382c4.966 1.024-7.265-.056-6.386-5.2.25-.96.342-1.017.46-1.335.418-.912.75-1.506 1.107-2.172.702-1.285 1.404-2.505 2.113-3.73 1.427-2.41 2.86-4.837 4.304-7.274 5.79-9.68 11.76-19.48 17.66-29.532 2.925-5.015 5.915-10.13 8.54-15.22.32-.633.63-1.262.914-1.87.277-.592.55-1.226.676-1.602.027-.08.047-.156.03-.097.054.175-.21-.088.086 1.605.783 3.993 7.467 3.05 5.434 2.953l-.364.14c1.083 1.738-4.837-16.045-2.677-8.475l.415-.107 1.02-.287c2.82-.813 5.72-1.698 8.61-2.577 2.895-.89 5.802-1.78 8.722-2.676l4.405-1.355c1.25 3.815-2.016-8.78 3.072 8.477l-.583.186-1.158.356-2.21.67c-2.952.897-5.914 1.796-8.89 2.698-2.97.906-6.05 1.704-9.088 2.565-6.098 1.757-12.26 3.26-18.464 4.84-3.095.818-6.236 1.48-9.372 2.22-3.14.713-6.283 1.48-9.455 2.153-25.358 5.476-51.65 9.853-78.654 13.174-27.01 3.263-54.73 5.44-82.958 6.575-28.23 1.116-56.96 1.234-86.024.067-29.06-1.175-58.458-3.586-87.88-7.892-29.4-4.34-58.876-10.485-87.654-19.75-14.38-4.63-28.575-10.065-42.325-16.62-13.74-6.552-27.064-14.215-39.363-23.477-12.243-9.285-23.51-20.242-32.174-33.302-4.28-6.542-7.94-13.558-10.557-20.996-.702-1.84-1.228-3.745-1.81-5.627-.5-1.908-1.026-3.81-1.4-5.748-.447-1.922-.712-3.88-1.04-5.823-.218-1.96-.497-3.915-.594-5.884-.174-1.964-.184-3.934-.232-5.902-.01-.23.005-.672.007-.815l.017-.7.032-1.4c.013-.473.013-.922.04-1.413l.1-1.51c.08-1 .117-2.032.235-3.005l.34-2.932c.113-.977.303-1.943.452-2.915.15-.973.32-1.94.54-2.9 1.547-7.712 4.205-15.157 7.633-22.153 3.477-6.976 7.7-13.524 12.52-19.522 2.373-3.033 4.948-5.877 7.556-8.675 2.666-2.74 5.378-5.425 8.224-7.944C52.07 74.19 64.648 65.768 77.695 58.58c13.063-7.185 26.624-13.145 40.344-18.292 27.486-10.22 55.613-17.14 83.485-22.18 27.898-4.984 55.593-8.08 82.746-9.877 27.15-1.81 53.8-2.332 79.647-2.052 51.782.528 100.683 4.208 145.47 10.593 11.195 1.596 22.127 3.385 32.79 5.28 10.672 1.85 21.052 3.967 31.068 6.472 10.023 2.472 19.737 5.1 29.112 7.89 9.363 2.83 18.39 5.81 27.047 8.942 34.58 12.618 63.303 27.837 83.906 44.38 10.283 8.272 18.467 16.867 24.463 25.15 2.98 4.158 5.397 8.235 7.362 12.092 1.952 3.867 3.375 7.542 4.478 10.883.525 1.677.947 3.282 1.354 4.778.32 1.518.665 2.926.903 4.245l.566 3.66.284 3.04.115 1.275.032 1.114.05 1.723.044 1.392zm0 0l-.045-1.39-.057-1.724c-.01-.343-.023-.714-.036-1.113l-.12-1.274c-.09-.904-.188-1.917-.296-3.038l-.58-3.655c-.243-1.317-.593-2.723-.92-4.238-.41-1.494-.86-3.09-1.4-4.76-1.14-3.322-2.603-6.97-4.594-10.803-2.025-3.81-4.517-7.82-7.56-11.896-3.065-4.06-6.713-8.146-10.88-12.214-4.187-4.048-8.923-8.047-14.164-11.946-5.23-3.915-11.01-7.676-17.256-11.283-6.246-3.61-12.94-7.11-20.08-10.41-14.273-6.62-30.228-12.62-47.594-17.958-8.68-2.685-17.714-5.206-27.075-7.56-9.35-2.393-19.027-4.63-29.01-6.694-9.988-2.03-20.23-4.123-30.746-6.148-10.523-1.988-21.35-3.715-32.436-5.303-44.337-6.323-92.896-9.98-144.263-10.503-25.723-.28-52.086.24-78.978 2.033-26.88 1.78-54.256 4.842-81.754 9.754-27.468 4.965-55.113 11.78-81.93 21.753-13.38 5.02-26.554 10.817-39.15 17.745C69.453 73.39 57.43 81.464 46.75 91.038c-2.686 2.375-5.227 4.896-7.724 7.458-2.433 2.615-4.836 5.265-7.03 8.072-4.47 5.557-8.33 11.564-11.49 17.9-3.11 6.353-5.498 13.05-6.885 19.965-.198.86-.35 1.728-.482 2.6-.13.87-.306 1.735-.406 2.61l-.305 2.628c-.11.88-.13 1.717-.203 2.577l-.092 1.282c-.024.44-.025.925-.04 1.386l-.052 2.685c.047 1.766.05 3.535.21 5.294.082 1.766.34 3.514.53 5.27.298 1.74.528 3.494.934 5.215.703 3.463 1.688 6.872 2.882 10.21 2.35 6.692 5.667 13.057 9.586 19.053 7.935 11.97 18.46 22.264 30.092 31.083 11.685 8.8 24.498 16.187 37.806 22.53 13.316 6.35 27.152 11.65 41.22 16.182 28.15 9.063 57.174 15.128 86.194 19.408 29.042 4.25 58.14 6.64 86.933 7.804 28.8 1.157 57.32 1.04 85.31-.067 27.99-1.125 55.472-3.284 82.228-6.517 26.747-3.29 52.77-7.623 77.827-13.033 3.134-.667 6.235-1.423 9.34-2.126 3.094-.73 6.2-1.385 9.25-2.192 6.12-1.558 12.222-3.047 18.164-4.76 2.986-.848 5.95-1.61 8.926-2.52 2.974-.9 5.937-1.8 8.887-2.695l2.21-.67 1.048-.323.517-.165c5.475 17.122 1.296 4.812 2.347 8.687l-4.383 1.348-8.747 2.685c-2.915.886-5.793 1.765-8.75 2.62l-1.15.322-.675.175c1.675 7.744-4.543-10.13-2.845-8.6l.685-.265c-1.73-.248 5.5-1.31 6.363 3.146.376 2.063.032 2.18.008 2.717-.097.426-.188.707-.278.982-.358 1.04-.698 1.773-1.048 2.537-.348.745-.7 1.455-1.053 2.152-2.844 5.507-5.83 10.595-8.8 15.69-5.95 10.144-11.934 19.966-17.698 29.6l-4.246 7.178c-.688 1.185-1.37 2.372-1.995 3.517-.3.55-.627 1.173-.78 1.518-.02-.002-.068.258.1-.367.69-4.595-10.89-6.083-5.7-5.125l.956-.377c5.094-2.018 10.103-4.08 15.03-6.172 9.84-4.214 19.372-8.495 28.66-12.68 9.292-4.178 18.236-8.483 26.823-12.878 8.592-4.383 16.837-8.84 24.685-13.403 15.7-9.115 29.866-18.583 42.184-28.36 6.178-4.864 11.85-9.85 17.06-14.836 5.212-4.984 9.944-9.996 14.122-15.02 4.188-5.016 7.877-9.997 11.07-14.87 3.172-4.89 5.852-9.664 8.076-14.24 2.203-4.588 3.94-8.974 5.34-13.058 1.417-4.08 2.35-7.9 3.148-11.32 1.467-6.877 1.956-12.27 2.14-15.894.136-1.812.1-3.192.144-4.114l.03-1.39z"/><text transform="matrix(.87 0 0 1.1 97.877 113.835)"><tspan x="0" y="0" fill="#E8CF3D" font-family="'Hetilica-Bold'" font-size="46" letter-spacing="2.299">Let</tspan><tspan x="101.566" y="0" fill="#E8CF3D" font-family="'Oxygen-Light'" font-size="46" letter-spacing="2.299">’</tspan><tspan x="116.644" y="0" fill="#E8CF3D" font-family="'Hetilica-Bold'" font-size="46" letter-spacing="2.299">s unsuck the web</tspan><tspan x="103.984" y="66.545" fill="#E8CF3D" font-family="'Hetilica-Bold'" font-size="61" letter-spacing="3.448"> together, </tspan><tspan x="46.133" y="123.818" fill="#E8CF3D" font-family="'Hetilica-Bold'" font-size="46" letter-spacing="2.299">one site at a time!</tspan></text></svg>